<svg width="300" height="300" viewBox="0 0 300 300" fill="none" xmlns="http://www.w3.org/2000/svg">
<g clip-path="url(#clip0_233_374)">
<path fill-rule="evenodd" clip-rule="evenodd" d="M300 150C300 232.843 232.843 300 150 300C67.1573 300 0 232.843 0 150C0 67.1573 67.1573 0 150 0C232.843 0 300 67.1573 300 150ZM149.978 60C99.0209 60 57.7 101.314 57.7 152.278C57.7 193.05 84.1405 227.64 120.806 239.841C125.417 240.695 127.111 237.84 127.111 235.402C127.111 234.405 127.093 232.368 127.07 229.721C127.042 226.525 127.007 222.439 126.986 218.222C101.313 223.804 95.8959 207.334 95.8959 207.334C91.6983 196.668 85.6502 193.832 85.6502 193.832C77.2781 188.105 86.2813 188.222 86.2813 188.222C95.5478 188.873 100.427 197.732 100.427 197.732C108.657 211.839 122.014 207.76 127.28 205.403C128.108 199.438 130.5 195.368 133.139 193.064C112.643 190.73 91.0962 182.817 91.0962 147.459C91.0962 137.385 94.7011 129.152 100.604 122.69C99.6463 120.366 96.4879 110.98 101.498 98.2697C101.498 98.2697 109.247 95.7895 126.881 107.729C134.242 105.684 142.136 104.659 149.978 104.624C157.821 104.659 165.721 105.684 173.095 107.729C190.709 95.7895 198.447 98.2697 198.447 98.2697C203.469 110.98 200.31 120.366 199.351 122.69C205.268 129.152 208.848 137.384 208.848 147.459C208.848 182.901 187.261 190.706 166.713 192.99C170.023 195.854 172.972 201.47 172.972 210.078C172.972 218.331 172.924 225.506 172.892 230.266C172.876 232.628 172.865 234.394 172.865 235.402C172.865 237.858 174.526 240.735 179.204 239.829C215.849 227.613 242.256 193.036 242.256 152.278C242.256 101.314 200.941 60 149.978 60ZM90.6799 191.738C91.3363 192.052 92.0586 191.914 92.2612 191.456C92.4936 190.996 92.1114 190.365 91.4405 190.064C90.7725 189.747 90.0503 189.879 89.8512 190.351C89.6341 190.811 90.0105 191.437 90.6799 191.738ZM94.9159 195.08C95.4999 195.725 96.3604 195.914 96.8004 195.506C97.2607 195.093 97.1428 194.24 96.5392 193.589C95.9341 192.945 95.0997 192.755 94.6459 193.162C94.1994 193.577 94.3123 194.436 94.9159 195.08ZM97.8527 199.892C98.4237 200.713 99.3487 201.081 99.9146 200.688C100.493 200.285 100.492 199.302 99.9276 198.468C99.3487 197.653 98.4382 197.299 97.865 197.693C97.2875 198.088 97.2875 199.072 97.8527 199.892ZM102.809 206.337C103.598 207.098 104.675 207.247 105.18 206.69C105.719 206.138 105.476 205.074 104.675 204.332C103.88 203.577 102.796 203.42 102.285 203.979C101.777 204.537 102.003 205.593 102.809 206.337ZM109.681 209.46C110.726 209.767 111.764 209.438 111.986 208.716C112.203 207.981 111.52 207.141 110.477 206.826C109.424 206.497 108.382 206.84 108.165 207.567C107.954 208.297 108.638 209.144 109.681 209.46ZM117.775 210.981C118.873 210.968 119.759 210.337 119.733 209.575C119.733 208.819 118.834 208.207 117.737 208.229C116.634 208.247 115.768 208.873 115.768 209.641C115.779 210.389 116.672 211.005 117.775 210.981ZM125.622 210.992C126.711 210.789 127.474 210.026 127.342 209.284C127.203 208.529 126.227 208.082 125.136 208.272C124.067 208.469 123.289 209.232 123.423 209.993C123.559 210.729 124.551 211.187 125.622 210.992Z" fill="#BFBFBF"/>
</g>
<defs>
<clipPath id="clip0_233_374">
<rect width="300" height="300" fill="white"/>
</clipPath>
</defs>
</svg>
