<svg width="300" height="300" viewBox="0 0 300 300" fill="none" xmlns="http://www.w3.org/2000/svg">
<g clip-path="url(#clip0_202_78)">
<path d="M131.324 178.089L180.095 150L131.324 121.912V178.089Z" fill="#BFBFBF"/>
<mask id="mask0_202_78" style="mask-type:luminance" maskUnits="userSpaceOnUse" x="0" y="0" width="300" height="300">
<path d="M0.0800781 0.078125H299.762V299.917H0.0800781V0.078125Z" fill="white"/>
</mask>
<g mask="url(#mask0_202_78)">
<path d="M150.002 0.078125C67.2155 0.078125 0.0800781 67.2135 0.0800781 150C0.0800781 232.786 67.2155 299.922 150.002 299.922C232.788 299.922 299.919 232.786 299.919 150C299.919 67.2135 232.788 0.078125 150.002 0.078125ZM243.679 150.151C243.679 150.151 243.679 180.557 239.82 195.219C237.658 203.245 231.33 209.573 223.304 211.729C208.643 215.589 150.002 215.589 150.002 215.589C150.002 215.589 91.5072 215.589 76.6947 211.578C68.6686 209.417 62.3405 203.089 60.179 195.063C56.3197 180.557 56.3197 150 56.3197 150C56.3197 150 56.3197 119.599 60.179 104.938C62.3405 96.9115 68.8249 90.4271 76.6947 88.2708C91.3561 84.4115 150.002 84.4115 150.002 84.4115C150.002 84.4115 208.643 84.4115 223.304 88.4219C231.33 90.5833 237.658 96.9115 239.82 104.938C243.835 119.599 243.679 150.151 243.679 150.151Z" fill="#BFBFBF"/>
</g>
</g>
<defs>
<clipPath id="clip0_202_78">
<rect width="300" height="300" fill="white"/>
</clipPath>
</defs>
</svg>
