<svg width="300" height="300" viewBox="0 0 300 300" fill="none" xmlns="http://www.w3.org/2000/svg">
<g clip-path="url(#clip0_202_66)">
<mask id="mask0_202_66" style="mask-type:luminance" maskUnits="userSpaceOnUse" x="0" y="0" width="300" height="300">
<path d="M0.0800781 0.078125H299.762V299.917H0.0800781V0.078125Z" fill="white"/>
</mask>
<g mask="url(#mask0_202_66)">
<path d="M150.002 0.078125C67.3353 0.078125 0.0800781 67.3281 0.0800781 150C0.0800781 232.672 67.3353 299.922 150.002 299.922C232.663 299.922 299.919 232.672 299.919 150C299.919 67.3281 232.663 0.078125 150.002 0.078125ZM104.372 215.182H78.2988V117.406H104.372V215.182ZM91.3353 97.8542C84.1322 97.8542 78.2988 92.0208 78.2988 84.8177C78.2988 77.6146 84.1322 71.7813 91.3353 71.7813C98.5384 71.7813 104.372 77.6146 104.372 84.8177C104.372 92.0208 98.5384 97.8542 91.3353 97.8542ZM228.221 215.182H202.148V166.297C202.148 153.75 191.882 143.479 179.33 143.479C166.783 143.479 156.518 153.75 156.518 166.297V215.182H130.445V117.406H156.518V129.245C164.132 121.932 174.455 117.406 185.851 117.406C209.252 117.406 228.221 136.375 228.221 159.776V215.182Z" fill="#BFBFBF"/>
</g>
</g>
<defs>
<clipPath id="clip0_202_66">
<rect width="300" height="300" fill="white"/>
</clipPath>
</defs>
</svg>
