<svg width="300" height="300" viewBox="0 0 300 300" fill="none" xmlns="http://www.w3.org/2000/svg">
<g clip-path="url(#clip0_202_72)">
<mask id="mask0_202_72" style="mask-type:luminance" maskUnits="userSpaceOnUse" x="0" y="0" width="300" height="300">
<path d="M0.0800781 0.078125H299.762V299.917H0.0800781V0.078125Z" fill="white"/>
</mask>
<g mask="url(#mask0_202_72)">
<path d="M299.919 150C299.919 232.833 232.83 299.922 150.002 299.922C67.1686 299.922 0.0800781 232.833 0.0800781 150C0.0800781 67.1719 67.1686 0.078125 150.002 0.078125C232.83 0.078125 299.919 67.1719 299.919 150ZM122.564 229.083C189.054 229.083 225.408 173.99 225.408 126.24C225.408 124.661 225.408 123.089 225.335 121.589C232.382 116.495 238.528 110.12 243.398 102.849C236.955 105.698 229.981 107.646 222.637 108.547C230.132 104.052 235.83 97.0052 238.528 88.5313C231.554 92.6563 223.835 95.6563 215.591 97.3021C208.992 90.2552 199.622 85.9115 189.205 85.9115C169.262 85.9115 153.075 102.099 153.075 122.042C153.075 124.891 153.372 127.661 154.049 130.286C123.992 128.786 97.377 114.396 79.5384 92.5052C76.4655 97.8281 74.6634 104.052 74.6634 110.646C74.6634 123.167 81.0384 134.26 90.7832 140.703C84.8613 140.557 79.3145 138.906 74.4395 136.208C74.4395 136.359 74.4395 136.505 74.4395 136.656C74.4395 154.198 86.8822 168.74 103.45 172.115C100.45 172.938 97.2259 173.385 93.929 173.385C91.6061 173.385 89.3561 173.161 87.1061 172.714C91.679 187.104 105.023 197.526 120.84 197.823C108.471 207.495 92.8822 213.266 75.9395 213.266C73.0176 213.266 70.1686 213.115 67.3197 212.74C83.1374 223.089 102.174 229.083 122.564 229.083Z" fill="#BFBFBF"/>
</g>
</g>
<defs>
<clipPath id="clip0_202_72">
<rect width="300" height="300" fill="white"/>
</clipPath>
</defs>
</svg>
